<svg xmlns="http://www.w3.org/2000/svg" height="61" fill="none" viewBox="0 0 146 55"><g clip-path="url(#clip0_226_2859)"><path fill="#2BA9E0" d="M57.09 21.44c.282.087.574.173.847.27-.282-.087-.565-.183-.847-.27ZM62.315 23.158c.254.086.508.182.753.268-.255-.086-.5-.182-.753-.268ZM69.158 25.748s-.019 0-.028-.01c0 0 .019 0 .028.01h.019c.48.201.988.403 1.515.614h.01c.038.01.066.029.103.038.01 0 .029.01.038.02-.584-.24-1.148-.461-1.685-.682v.01ZM52.205 19.982c1.214.346 2.42.7 3.605 1.056-1.186-.365-2.39-.71-3.605-1.056ZM64.46 23.925c.255.096.51.182.763.278a24.1 24.1 0 0 0-.762-.278ZM18.224 49.807c2.984-13.104 9.902-24.683 18.741-33.364C19.9 13.325 3.812 13.593.575 22.304c-2.279 6.14 2.38 15.407 10.391 24.558 2.193 2.504 4.716 3.425 7.116 3.521l.142-.585v.01ZM46.576 18.495c.349.087.697.173 1.036.26l-1.036-.26ZM41.493 17.325c1.29.278 2.589.566 3.869.873-1.29-.307-2.58-.604-3.869-.873Z"/><path fill="#F69322" d="M145.027 22.304c-3.229-8.71-19.316-8.98-36.391-5.871 8.839 8.691 15.757 20.26 18.741 33.365l.141.585c2.41-.105 4.923-1.017 7.117-3.52 8.01-9.143 12.67-18.41 10.392-24.559Z"/><path fill="#0E73BA" d="M72.8 27.216C61.723 29 42.878 38.727 27.402 47.534c-1.214.69-5.092 3.022-9.31 2.84l.142-.586c2.984-13.104 9.912-24.683 18.75-33.374 1.422.259 2.863.547 4.293.844h.066c1.43.307 2.852.624 4.274.969h.028c.706.173 1.412.345 2.118.527.019 0 .038 0 .056.01 1.394.355 2.768.72 4.133 1.103.037.01.084.02.122.039h.028c1.337.374 2.664.767 3.963 1.16.019 0 .038.01.057.02.028 0 .056.019.094.028.63.192 1.252.394 1.873.586.028 0 .047.019.075.028.047.02.095.03.142.048 1.233.394 2.438.797 3.614 1.2.038.01.076.028.123.038.056.02.112.038.169.057.565.202 1.13.394 1.685.595.066.02.122.048.188.067.508.183 1.017.375 1.516.557.066.029.14.048.207.076.01 0 .028 0 .037.01.518.192 1.036.393 1.535.595.037.019.075.029.113.048.066.029.132.048.197.077.509.201 1.017.402 1.507.604h.018c.48.201.989.403 1.516.614h.01c.037.01.065.029.103.038"/><path fill="#FFD600" d="M72.8 27.216C83.88 29 102.725 38.727 118.2 47.534c1.214.69 5.092 3.022 9.309 2.84l-.141-.586c-2.984-13.104-9.912-24.683-18.751-33.374a178.42 178.42 0 0 0-4.292.844h-.066c-1.431.307-2.852.624-4.274.969h-.028c-.706.173-1.412.345-2.118.527-.019 0-.037 0-.056.01-1.393.355-2.768.72-4.133 1.103-.037.01-.084.02-.122.039H93.5c-1.337.374-2.664.767-3.963 1.16-.019 0-.038.01-.057.02-.028 0-.056.019-.094.028-.63.192-1.252.394-1.873.586-.028 0-.047.019-.075.028-.047.02-.094.03-.142.048-1.233.394-2.438.797-3.614 1.2-.038.01-.075.028-.123.038-.056.02-.112.038-.169.057-.565.202-1.13.394-1.685.595-.066.02-.122.048-.188.067-.508.183-1.017.375-1.516.557-.066.029-.14.048-.207.076-.01 0-.028 0-.037.01-.518.192-1.036.393-1.535.595-.037.019-.075.029-.113.048-.066.029-.131.048-.197.077-.509.201-1.017.402-1.506.604h-.02c-.48.201-.988.403-1.515.614h-.01c-.037.01-.065.029-.103.038l-1.995.796.037.068Z"/><path fill="#8CC542" d="M74.758 26.439c.584-.24 1.149-.47 1.685-.691 8.773-3.607 20.7-7.224 32.184-9.315C98.235 6.226 85.197 0 72.801 0 60.403 0 47.365 6.216 36.965 16.433c11.484 2.091 23.42 5.708 32.193 9.315 1.11.46 2.334.95 3.642 1.468.292-.116.565-.221.848-.336l1.11-.441Z"/></g><defs><clipPath id="clip0_226_2859"><path fill="#fff" d="M0 0h400v60.158H0z"/></clipPath></defs></svg>
